<svg width="26" height="19" viewBox="0 0 26 19" fill="none" xmlns="http://www.w3.org/2000/svg">
<path d="M23.476 15.6579C23.476 16.0732 23.3111 16.4715 23.0176 16.7651C22.724 17.0587 22.326 17.2237 21.9109 17.2237H3.13013C2.71505 17.2237 2.31697 17.0587 2.02346 16.7651C1.72995 16.4715 1.56506 16.0732 1.56506 15.6579V6.26317C1.56506 5.84789 1.72995 5.44963 2.02346 5.15599C2.31697 4.86234 2.71505 4.69738 3.13013 4.69738H4.96438C6.20898 4.6967 7.40239 4.20165 8.28232 3.32104L9.58132 2.02457C9.87399 1.73167 10.2707 1.56671 10.6847 1.56579H14.3532C14.7682 1.56588 15.1663 1.73091 15.4597 2.02457L16.7556 3.32104C17.1916 3.75745 17.7094 4.10363 18.2792 4.33978C18.8491 4.57594 19.4598 4.69745 20.0766 4.69738H21.9109C22.326 4.69738 22.724 4.86234 23.0176 5.15599C23.3111 5.44963 23.476 5.84789 23.476 6.26317V15.6579ZM3.13013 3.13158C2.29997 3.13158 1.50381 3.46152 0.916793 4.0488C0.32978 4.63609 0 5.43262 0 6.26317L0 15.6579C0 16.4885 0.32978 17.285 0.916793 17.8723C1.50381 18.4596 2.29997 18.7895 3.13013 18.7895H21.9109C22.7411 18.7895 23.5372 18.4596 24.1242 17.8723C24.7112 17.285 25.041 16.4885 25.041 15.6579V6.26317C25.041 5.43262 24.7112 4.63609 24.1242 4.0488C23.5372 3.46152 22.7411 3.13158 21.9109 3.13158H20.0766C19.2465 3.13141 18.4505 2.80136 17.8636 2.21403L16.5678 0.917554C15.9809 0.330227 15.1849 0.000177365 14.3548 0H10.6863C9.85616 0.000177365 9.06013 0.330227 8.47325 0.917554L7.17738 2.21403C6.59051 2.80136 5.79447 3.13141 4.96438 3.13158H3.13013Z" fill="white"/>
<path d="M12.5212 14.092C11.4835 14.092 10.4883 13.6796 9.75455 12.9455C9.02079 12.2114 8.60856 11.2157 8.60856 10.1776C8.60856 9.13936 9.02079 8.1437 9.75455 7.40959C10.4883 6.67548 11.4835 6.26306 12.5212 6.26306C13.5589 6.26306 14.5541 6.67548 15.2879 7.40959C16.0216 8.1437 16.4339 9.13936 16.4339 10.1776C16.4339 11.2157 16.0216 12.2114 15.2879 12.9455C14.5541 13.6796 13.5589 14.092 12.5212 14.092ZM12.5212 15.6578C13.974 15.6578 15.3673 15.0805 16.3945 14.0527C17.4218 13.0249 17.9989 11.631 17.9989 10.1776C17.9989 8.72409 17.4218 7.33016 16.3945 6.3024C15.3673 5.27465 13.974 4.69727 12.5212 4.69727C11.0684 4.69727 9.67516 5.27465 8.64789 6.3024C7.62062 7.33016 7.04351 8.72409 7.04351 10.1776C7.04351 11.631 7.62062 13.0249 8.64789 14.0527C9.67516 15.0805 11.0684 15.6578 12.5212 15.6578ZM4.69592 7.04596C4.69592 7.2536 4.61347 7.45273 4.46672 7.59955C4.31997 7.74637 4.12093 7.82886 3.91339 7.82886C3.70585 7.82886 3.50681 7.74637 3.36006 7.59955C3.2133 7.45273 3.13086 7.2536 3.13086 7.04596C3.13086 6.83832 3.2133 6.63919 3.36006 6.49237C3.50681 6.34555 3.70585 6.26306 3.91339 6.26306C4.12093 6.26306 4.31997 6.34555 4.46672 6.49237C4.61347 6.63919 4.69592 6.83832 4.69592 7.04596Z" fill="white"/>
</svg>
