<svg width="188" height="142" viewBox="0 0 188 142" fill="none" xmlns="http://www.w3.org/2000/svg">
<path d="M17.625 0C12.9506 0 8.46757 1.87008 5.16224 5.19886C1.85691 8.52763 0 13.0424 0 17.75L0 124.25C0 128.958 1.85691 133.472 5.16224 136.801C8.46757 140.13 12.9506 142 17.625 142H170.375C175.049 142 179.532 140.13 182.838 136.801C186.143 133.472 188 128.958 188 124.25V17.75C188 13.0424 186.143 8.52763 182.838 5.19886C179.532 1.87008 175.049 0 170.375 0H17.625ZM170.375 11.8333C171.933 11.8333 173.427 12.4567 174.529 13.5663C175.631 14.6759 176.25 16.1808 176.25 17.75V88.75L131.894 65.7105C130.792 65.1546 129.544 64.9618 128.328 65.1593C127.111 65.3568 125.987 65.9346 125.114 66.811L81.5215 110.713L50.2665 89.744C49.138 88.9874 47.7845 88.6471 46.4353 88.7808C45.0861 88.9145 43.8244 89.514 42.864 90.4777L11.7735 118.333V124.723C11.7595 124.566 11.7516 124.408 11.75 124.25V17.75C11.75 16.1808 12.369 14.6759 13.4707 13.5663C14.5725 12.4567 16.0669 11.8333 17.625 11.8333H170.375Z" fill="#B2C0DF"/>
</svg>
