<svg width="17" height="12" viewBox="0 0 17 12" fill="none" xmlns="http://www.w3.org/2000/svg">
<path d="M16.6733 5.76896C14.9119 2.73219 11.8229 0.894531 8.40458 0.894531C4.9863 0.894531 1.89208 2.73219 0.146348 5.76896L0 5.99806L0.135895 6.23203C1.8973 9.2688 4.9863 11.1065 8.40458 11.1065C11.8229 11.1065 14.9171 9.29318 16.6733 6.23203L16.8092 5.99806L16.6733 5.76896ZM8.40458 10.1072C5.46193 10.1072 2.75971 8.57663 1.19169 5.99806C2.75971 3.41949 5.46193 1.88891 8.40458 1.88891C11.3472 1.88891 14.0181 3.42436 15.6122 5.99806C14.0181 8.57663 11.342 10.1072 8.40458 10.1072Z" fill="#9A9A9A"/>
<path d="M8.55614 2.66806C7.84745 2.67288 7.1562 2.87346 6.56968 3.24445C5.98315 3.61544 5.52768 4.14021 5.26077 4.75248C4.99386 5.36475 4.9275 6.03705 5.07006 6.68448C5.21262 7.3319 5.55771 7.9254 6.06175 8.39002C6.56579 8.85464 7.20616 9.16954 7.90199 9.29495C8.59782 9.42035 9.31789 9.35064 9.97125 9.09461C10.6246 8.83858 11.182 8.40772 11.5729 7.85645C11.9639 7.30518 12.1709 6.65822 12.1678 5.99729C12.1658 5.55735 12.0706 5.1221 11.8879 4.7165C11.7051 4.3109 11.4384 3.94291 11.1029 3.63364C10.7673 3.32436 10.3697 3.07987 9.93267 2.91418C9.49565 2.74848 9.02787 2.66485 8.55614 2.66806ZM8.55614 8.38089C8.05555 8.37608 7.56765 8.23343 7.15371 7.97086C6.73977 7.70829 6.41825 7.33751 6.22953 6.90508C6.04081 6.47265 5.99331 5.99786 6.09299 5.54034C6.19267 5.08282 6.43509 4.66296 6.7898 4.33351C7.14451 4.00406 7.5957 3.77969 8.08669 3.6886C8.57768 3.59751 9.08659 3.64374 9.54949 3.8215C10.0124 3.99927 10.4087 4.30062 10.6885 4.68773C10.9684 5.07484 11.1193 5.53043 11.1225 5.99729C11.1239 6.3115 11.0584 6.62284 10.9297 6.91325C10.8011 7.20367 10.612 7.46738 10.3733 7.68911C10.1345 7.91083 9.851 8.08615 9.53907 8.20491C9.22715 8.32366 8.89304 8.38347 8.55614 8.38089Z" fill="#9A9A9A"/>
</svg>
