<svg width="20" height="20" viewBox="0 0 20 20" fill="none" xmlns="http://www.w3.org/2000/svg">
<path d="M19.8055 8.04136H19V7.99986H10V11.9998H15.6515C14.827 14.3283 12.6115 15.9997 10 15.9997C6.6865 15.9997 4 13.3133 4 9.99983C4 6.68639 6.6865 3.99993 10 3.99993C11.5295 3.99993 12.921 4.57692 13.9805 5.5194L16.809 2.69095C15.023 1.02648 12.634 0 10 0C4.4775 0 0 4.47742 0 9.99983C0 15.5222 4.4775 19.9997 10 19.9997C15.5225 19.9997 20 15.5222 20 9.99983C20 9.32934 19.931 8.67485 19.8055 8.04136Z" fill="#FFC107"/>
<path d="M1.15308 5.34541L4.43858 7.75487C5.32758 5.55391 7.48058 3.99993 10.0001 3.99993C11.5296 3.99993 12.9211 4.57692 13.9806 5.5194L16.8091 2.69095C15.0231 1.02648 12.6341 0 10.0001 0C6.15908 0 2.82808 2.16846 1.15308 5.34541Z" fill="#FF3D00"/>
<path d="M9.99991 20.0002C12.5829 20.0002 14.9299 19.0117 16.7044 17.4043L13.6094 14.7853C12.6054 15.5458 11.3574 16.0003 9.99991 16.0003C7.39891 16.0003 5.19041 14.3418 4.35841 12.0273L1.09741 14.5398C2.75241 17.7782 6.11341 20.0002 9.99991 20.0002Z" fill="#4CAF50"/>
<path d="M19.8055 8.0415H19V8H10V11.9999H15.6515C15.2555 13.1184 14.536 14.0829 13.608 14.7854C13.6085 14.7849 13.609 14.7849 13.6095 14.7844L16.7045 17.4033C16.4855 17.6023 20 14.9999 20 9.99997C20 9.32948 19.931 8.67499 19.8055 8.0415Z" fill="#1976D2"/>
</svg>
