<svg width="19" height="19" viewBox="0 0 19 19" fill="none" xmlns="http://www.w3.org/2000/svg">
<path d="M18.2057 8.20505L2.0461 0.133341C1.82809 0.03244 1.58829 -0.0123883 1.34852 0.00293671C1.10875 0.0182617 0.87662 0.0932536 0.673267 0.221085C0.469914 0.348917 0.301795 0.52553 0.184214 0.734845C0.0666322 0.94416 0.00332294 1.17953 4.88625e-05 1.41953V17.556C-0.00198701 17.8023 0.0596277 18.0451 0.178938 18.2607C0.298248 18.4763 0.471219 18.6575 0.681132 18.7868C0.891044 18.9162 1.1308 18.9892 1.37723 18.9989C1.62365 19.0086 1.86841 18.9546 2.08785 18.8422L18.2057 10.7705C18.4445 10.6507 18.6452 10.467 18.7854 10.2399C18.9257 10.0128 19 9.75116 19 9.48428C19 9.2174 18.9257 8.95578 18.7854 8.72865C18.6452 8.50152 18.4445 8.31782 18.2057 8.19809V8.20505Z" fill="white"/>
</svg>
