<svg width="35" height="24" viewBox="0 0 35 24" fill="none" xmlns="http://www.w3.org/2000/svg">
<path d="M34.2388 11.1918C34.2388 5.01235 26.5717 0.000120163 17.1194 0.000120163C7.66711 0.000120163 0 5.03523 0 11.1918V11.8555C0 18.4012 6.70586 23.7109 17.1194 23.7109C27.6016 23.7109 34.2388 18.4012 34.2388 11.8555V11.1918Z" fill="#28316B"/>
<path d="M33.5968 11.1898C33.5968 17.0031 26.2273 21.7178 17.1412 21.7178C8.03218 21.7178 0.662598 17.0031 0.662598 11.1898C0.662598 5.37653 8.03218 0.661837 17.1183 0.661837C26.2273 0.638948 33.5968 5.37653 33.5968 11.1898Z" fill="#50B4E9"/>
<path d="M11.6639 7.85664C11.6639 7.87953 11.4808 8.03974 11.5952 8.17706C11.847 8.52036 12.648 8.70346 13.472 8.52036C13.9526 8.40593 14.5705 7.9253 15.1656 7.44468C15.8064 6.91828 16.4702 6.41477 17.111 6.20879C17.7976 5.97992 18.2324 6.09435 18.53 6.16301C18.8504 6.25456 19.2166 6.46054 19.8116 6.91828C20.9331 7.76509 25.4647 11.7245 26.2429 12.4111C26.8837 12.1365 29.6759 10.9235 33.4751 10.0767C33.1547 8.03974 31.9188 6.1859 30.0421 4.67536C27.4559 5.77393 24.2517 6.34611 21.1391 4.81269C21.1162 4.81269 19.4454 4.01164 17.7747 4.05742C15.3029 4.10319 14.2272 5.17888 13.0829 6.32322L11.6639 7.85664Z" fill="white"/>
<path d="M26.0669 12.8334C26.0211 12.7877 20.7571 8.18741 19.5441 7.27193C18.8575 6.74553 18.4684 6.6311 18.0565 6.56244C17.8505 6.53955 17.5529 6.58533 17.347 6.6311C16.7977 6.79131 16.0653 7.27193 15.4245 7.77544C14.7607 8.30184 14.1199 8.80535 13.5477 8.94268C12.7925 9.10288 11.8999 8.91979 11.465 8.62226C11.3048 8.50782 11.1675 8.3705 11.1217 8.25607C10.9615 7.88988 11.2591 7.61524 11.3048 7.56946L12.7696 5.99027L13.2731 5.48676C12.8154 5.55542 12.3805 5.66985 11.9457 5.78428C11.4193 5.94449 10.9157 6.08181 10.3893 6.08181C10.1834 6.08181 9.03902 5.89872 8.81015 5.83006C7.5056 5.48676 6.36126 5.12057 4.62185 4.31952C2.56203 5.85295 1.16593 7.77544 0.776855 9.90392C1.07439 9.97259 1.55501 10.1328 1.76099 10.1786C6.4528 11.2314 7.89468 12.2842 8.16932 12.513C8.46685 12.1926 8.87881 11.9866 9.33655 11.9866C9.86295 11.9866 10.3207 12.2384 10.5953 12.6504C10.87 12.4444 11.2362 12.2613 11.7168 12.2613C11.9228 12.2613 12.1516 12.307 12.3805 12.3757C12.9069 12.5588 13.1815 12.9021 13.3189 13.2225C13.502 13.131 13.7079 13.0852 13.9597 13.0852C14.2115 13.0852 14.4861 13.131 14.7379 13.2454C15.6076 13.6116 15.7449 14.4584 15.6533 15.0992H15.8364C16.8663 15.0992 17.6903 15.9232 17.6903 16.9531C17.6903 17.2735 17.5987 17.571 17.4614 17.8228C17.736 17.983 18.4455 18.3263 19.0635 18.2576C19.567 18.189 19.7501 18.0288 19.8187 17.9372C19.8645 17.8686 19.9103 17.7999 19.8645 17.7312L18.5371 16.2665C18.5371 16.2665 18.3082 16.0605 18.3998 15.9918C18.4684 15.9003 18.6057 16.0376 18.6973 16.1063C19.361 16.6784 20.1849 17.5253 20.1849 17.5253C20.2078 17.5253 20.2536 17.6397 20.5511 17.6855C20.8029 17.7312 21.2835 17.7084 21.6039 17.4337C21.6955 17.3651 21.7641 17.2735 21.8328 17.2048L21.8099 17.2277C22.1532 16.7929 21.7641 16.358 21.7641 16.358L20.2765 14.6186C20.2765 14.6186 20.0476 14.4126 20.1392 14.3211C20.2078 14.2524 20.3451 14.3669 20.4367 14.4355C20.9173 14.8475 21.6268 15.5341 22.2676 16.1749C22.405 16.2665 22.9771 16.6327 23.7553 16.1292C24.213 15.8316 24.3046 15.4426 24.3046 15.1679C24.2817 14.8017 23.9842 14.5271 23.9842 14.5271L21.8786 12.4215C21.8786 12.4215 21.6497 12.2384 21.7412 12.124C21.8099 12.0324 21.9472 12.1697 22.0388 12.2384C22.7025 12.8106 24.5334 14.4584 24.5334 14.4584C24.5563 14.4813 25.1972 14.9162 25.9524 14.4355C26.2271 14.2524 26.4102 14.0007 26.4331 13.6803C26.4559 13.1539 26.0669 12.8334 26.0669 12.8334Z" fill="white"/>
<path d="M15.8619 15.5274C15.5415 15.5274 15.1753 15.7105 15.1296 15.6876C15.1067 15.6647 15.1524 15.5503 15.1753 15.4587C15.1982 15.3901 15.6331 14.0855 14.5803 13.6507C13.7792 13.3074 13.2986 13.6964 13.1155 13.8795C13.0697 13.9253 13.0468 13.9253 13.0468 13.8566C13.024 13.6278 12.9324 12.9869 12.2458 12.781C11.2617 12.4834 10.6208 13.17 10.4606 13.4218C10.392 12.8496 9.91134 12.4148 9.33917 12.4148C8.69834 12.4148 8.19482 12.9183 8.19482 13.5591C8.19482 14.1999 8.69834 14.7035 9.33917 14.7035C9.6367 14.7035 9.93423 14.589 10.1402 14.383V14.4288C10.0944 14.7035 10.0029 15.7563 11.0786 16.1682C11.5134 16.3284 11.8796 16.214 12.1771 15.9851C12.2687 15.9165 12.2916 15.9393 12.2687 16.0309C12.2229 16.3055 12.2687 16.8548 13.0697 17.1981C13.6648 17.4499 14.031 17.1981 14.2598 16.9693C14.3514 16.8777 14.3972 16.9006 14.3972 17.0379C14.4201 17.8161 15.0609 18.4111 15.839 18.4111C16.6401 18.4111 17.2809 17.7703 17.2809 16.9693C17.3038 16.1682 16.663 15.5274 15.8619 15.5274Z" fill="white"/>
<path d="M15.862 18.3092C15.1296 18.3092 14.5574 17.7371 14.5346 17.0276C14.5346 16.9589 14.5346 16.7987 14.3972 16.7987C14.3515 16.7987 14.2828 16.8216 14.237 16.8903C14.0539 17.0505 13.8479 17.1878 13.5504 17.1878C13.4131 17.1878 13.2758 17.1649 13.1156 17.0962C12.3603 16.7758 12.3374 16.2494 12.3832 16.0434C12.3832 15.9977 12.3832 15.929 12.3603 15.8832L12.3145 15.8375H12.2688C12.223 15.8375 12.1772 15.8603 12.1314 15.8832C11.9026 16.0434 11.6966 16.1121 11.4906 16.1121C11.3762 16.1121 11.2617 16.0892 11.1244 16.0434C10.1174 15.6544 10.2089 14.6931 10.2547 14.4185C10.2547 14.3498 10.2547 14.3269 10.2089 14.2811L10.1174 14.2354L10.0487 14.304C9.84274 14.4871 9.59099 14.6016 9.31635 14.6016C8.74417 14.6016 8.26355 14.1438 8.26355 13.5488C8.26355 12.9537 8.74417 12.496 9.31635 12.496C9.84274 12.496 10.2776 12.885 10.3463 13.4114L10.392 13.6861L10.5522 13.4572C10.5751 13.4343 10.9871 12.7935 11.7652 12.7935C11.9026 12.7935 12.0628 12.8164 12.223 12.8622C12.8409 13.0453 12.9554 13.6174 12.9554 13.8463C12.9782 13.9836 13.0698 13.9836 13.0927 13.9836C13.1385 13.9836 13.1842 13.9607 13.2071 13.915C13.3216 13.8005 13.5733 13.5945 13.9853 13.5945C14.1684 13.5945 14.3515 13.6403 14.5574 13.7319C15.5416 14.1438 15.0838 15.4026 15.0838 15.4255C14.9923 15.6315 14.9923 15.723 15.0838 15.7688L15.1296 15.7917H15.1525C15.1983 15.7917 15.244 15.7688 15.3356 15.7459C15.4729 15.7001 15.6789 15.6315 15.862 15.6315C16.5944 15.6315 17.2123 16.2494 17.2123 16.9818C17.1894 17.7142 16.5944 18.3092 15.862 18.3092ZM26.2755 12.29C24.6506 10.871 20.8971 7.59817 19.8901 6.84291C19.3179 6.40805 18.906 6.17919 18.5626 6.06475C18.4024 6.01898 18.1736 5.9732 17.8989 5.9732C17.6472 5.9732 17.3725 6.01898 17.075 6.11053C16.4113 6.31651 15.7704 6.84291 15.1296 7.34642L15.1067 7.3693C14.5117 7.82704 13.9166 8.33055 13.436 8.4221C13.23 8.46788 13.024 8.49076 12.818 8.49076C12.2916 8.49076 11.8339 8.33055 11.6737 8.12457C11.6508 8.0788 11.6737 8.03302 11.7195 7.94148V7.91859L13.1385 6.38517C14.2599 5.26371 15.3127 4.21091 17.7387 4.14225H17.8532C19.3637 4.14225 20.8742 4.82886 21.0573 4.89752C22.4763 5.58413 23.9411 5.95032 25.4287 5.95032C26.9621 5.95032 28.5413 5.56124 30.2121 4.80597C30.029 4.64576 29.823 4.50844 29.6399 4.34824C28.198 4.98907 26.8019 5.30948 25.4516 5.30948C24.0784 5.30948 22.7052 4.96618 21.3777 4.32535C21.3091 4.30246 19.6383 3.50142 17.8989 3.50142H17.7616C15.7247 3.54719 14.5574 4.27957 13.8022 4.92041C13.0469 4.94329 12.4061 5.12639 11.811 5.2866C11.2846 5.42392 10.8498 5.56124 10.4149 5.56124C10.2318 5.56124 9.9114 5.53835 9.88852 5.53835C9.38501 5.51547 6.86745 4.89752 4.8534 4.14225C4.64742 4.27957 4.44144 4.43978 4.25834 4.59999C6.34105 5.44681 8.90438 6.11053 9.70542 6.17919C9.93429 6.20207 10.1632 6.22496 10.4149 6.22496C10.9413 6.22496 11.4677 6.06475 11.9941 5.92743C12.2916 5.83588 12.6349 5.74434 12.9782 5.67567L12.7036 5.95032L11.2617 7.52951C11.1473 7.64395 10.8955 7.96436 11.0557 8.33055C11.1244 8.49076 11.2617 8.62808 11.4448 8.7654C11.7881 8.99427 12.4061 9.15448 12.9782 9.15448C13.2071 9.15448 13.4131 9.13159 13.5962 9.08582C14.2141 8.9485 14.8321 8.44499 15.5187 7.8957C16.068 7.46085 16.8232 6.93445 17.4183 6.77425C17.5785 6.72847 17.7845 6.70558 17.9447 6.70558H18.082C18.4711 6.75136 18.8373 6.88868 19.5239 7.39219C20.714 8.28478 26.0009 12.9079 26.0467 12.9537C26.0467 12.9537 26.39 13.2512 26.3671 13.7319C26.3442 14.0065 26.2069 14.2354 25.9551 14.3956C25.7262 14.5329 25.4974 14.6016 25.2685 14.6016C24.9252 14.6016 24.6734 14.4414 24.6506 14.4185C24.6277 14.3956 22.8196 12.7477 22.1559 12.1984C22.0415 12.1069 21.9499 12.0382 21.8355 12.0382C21.7897 12.0382 21.721 12.0611 21.6982 12.1069C21.5837 12.2442 21.721 12.4044 21.8584 12.5417L23.964 14.6702C23.964 14.6702 24.2157 14.922 24.2615 15.2424C24.2844 15.5857 24.1013 15.8832 23.758 16.1121C23.5062 16.2723 23.2545 16.3639 23.0027 16.3639C22.6823 16.3639 22.4534 16.2265 22.4076 16.1808L22.1101 15.8832C21.5608 15.3339 20.9887 14.7847 20.5767 14.4185C20.4165 14.304 20.3021 14.2125 20.1876 14.2125C20.1418 14.2125 20.0961 14.2354 20.0503 14.2583C20.0045 14.304 19.9587 14.3956 20.0961 14.5558C20.1418 14.6244 20.2105 14.6702 20.2105 14.6702L21.7439 16.4096C21.7668 16.4325 22.0643 16.7987 21.7668 17.142L21.721 17.2107L21.5837 17.348C21.332 17.554 20.9658 17.5769 20.8285 17.5769C20.7598 17.5769 20.6911 17.5769 20.6225 17.554C20.4623 17.5311 20.3707 17.4853 20.3249 17.4166L20.3021 17.3938C20.2105 17.3022 19.4324 16.5241 18.7915 15.9748C18.7 15.9061 18.6084 15.8146 18.494 15.8146C18.4482 15.8146 18.4024 15.8375 18.3567 15.8832C18.2193 16.0205 18.4253 16.2265 18.494 16.3181L19.7985 17.76C19.7985 17.7828 19.7757 17.8057 19.7528 17.8515C19.707 17.9202 19.5468 18.0804 19.0662 18.1261H18.8831C18.3796 18.1261 17.876 17.8973 17.6014 17.7371C17.7158 17.4853 17.7845 17.1878 17.7845 16.9131C17.7845 15.8375 16.9148 14.9449 15.8162 14.9449H15.7476C15.7933 14.4414 15.7247 13.5259 14.7634 13.1139C14.4888 12.9995 14.2141 12.9308 13.9395 12.9308C13.7335 12.9308 13.5275 12.9766 13.3444 13.0453C13.1385 12.6562 12.818 12.3815 12.3832 12.2213C12.1772 12.1984 11.9483 12.1527 11.6966 12.1527C11.3075 12.1527 10.9184 12.2671 10.598 12.496C10.2776 12.1069 9.79697 11.878 9.31635 11.878C8.88149 11.878 8.46953 12.0611 8.14911 12.3586C7.73715 12.0382 6.11218 11.0083 1.78656 10.0242C1.58058 9.97841 1.09995 9.84109 0.802423 9.74954C0.756649 9.97841 0.710875 10.2302 0.687988 10.459C0.687988 10.459 1.48903 10.6421 1.64924 10.6879C6.08929 11.672 7.55405 12.7019 7.80581 12.885C7.71426 13.091 7.66849 13.297 7.66849 13.5259C7.66849 14.4414 8.42376 15.1966 9.33923 15.1966C9.43078 15.1966 9.54521 15.1966 9.63676 15.1737C9.77408 15.8375 10.2089 16.3639 10.8955 16.6156C11.1015 16.6843 11.2846 16.73 11.4906 16.73C11.6279 16.73 11.7424 16.7072 11.8797 16.6843C11.9941 17.0047 12.2916 17.3938 12.9096 17.6455C13.1385 17.7371 13.3444 17.7828 13.5733 17.7828C13.7564 17.7828 13.9166 17.76 14.0768 17.6913C14.3743 18.4237 15.0838 18.9043 15.8849 18.9043C16.4113 18.9043 16.9148 18.6983 17.281 18.3092C17.6014 18.4923 18.2651 18.8127 18.9288 18.8127C19.0204 18.8127 19.089 18.8127 19.1806 18.7899C19.8443 18.6983 20.1647 18.4466 20.3021 18.2406C20.3249 18.1948 20.3478 18.1719 20.3707 18.1261C20.5309 18.1719 20.6911 18.2177 20.8971 18.2177C21.2633 18.2177 21.6066 18.1033 21.9728 17.8286C22.3161 17.5769 22.5679 17.2107 22.6136 16.9131V16.8903C22.7281 16.9131 22.8425 16.936 22.9798 16.936C23.3689 16.936 23.7351 16.8216 24.0784 16.5927C24.765 16.135 24.8794 15.5628 24.8794 15.1737C24.9939 15.1966 25.1312 15.2195 25.2456 15.2195C25.5889 15.2195 25.9551 15.1051 26.2755 14.8991C26.7104 14.6244 26.9621 14.2125 26.985 13.7319C27.0079 13.4114 26.9392 13.0681 26.7562 12.7935C27.9005 12.29 30.5096 11.3516 33.5993 10.6421C33.5764 10.4133 33.5536 10.1615 33.5078 9.93264C29.7543 10.7795 26.9621 11.9696 26.2755 12.29Z" fill="#28316B"/>
</svg>
