<svg width="25" height="26" viewBox="0 0 25 26" fill="none" xmlns="http://www.w3.org/2000/svg">
<path d="M23.8697 11.203L2.68266 0.620137C2.39684 0.487845 2.08243 0.42907 1.76806 0.449163C1.45369 0.469256 1.14935 0.567578 0.882728 0.73518C0.61611 0.902782 0.395687 1.13434 0.241524 1.40878C0.0873622 1.68321 0.00435675 1.99181 6.40641e-05 2.30647V23.4632C-0.00260519 23.7862 0.0781785 24.1044 0.234607 24.3871C0.391036 24.6698 0.61782 24.9074 0.893039 25.077C1.16826 25.2465 1.4826 25.3423 1.8057 25.355C2.12879 25.3677 2.4497 25.2969 2.73741 25.1495L23.8697 14.5666C24.1827 14.4096 24.4459 14.1688 24.6298 13.871C24.8137 13.5732 24.9111 13.2302 24.9111 12.8803C24.9111 12.5303 24.8137 12.1873 24.6298 11.8895C24.4459 11.5917 24.1827 11.3509 23.8697 11.1939V11.203Z" fill="#B2C0DF"/>
</svg>
