<svg width="51" height="51" viewBox="0 0 51 51" fill="none" xmlns="http://www.w3.org/2000/svg">
<path d="M48.6445 22.4714L48.9313 22.6146C49.3633 22.8872 49.7289 23.2554 49.9987 23.6922C50.3264 24.223 50.5 24.8343 50.5 25.4578C50.5 26.0813 50.3264 26.6926 49.9987 27.2234C49.671 27.754 49.202 28.1833 48.644 28.4631C48.644 28.4632 48.6439 28.4632 48.6438 28.4633L5.38034 50.1293L5.37624 50.1314C4.86372 50.394 4.29202 50.5201 3.71641 50.4974C3.14081 50.4748 2.58081 50.3042 2.09056 50.0022L1.83544 50.4163L2.09055 50.0021C1.6003 49.7001 1.19638 49.2769 0.917797 48.7734C0.639211 48.27 0.495361 47.7033 0.500114 47.1281H0.500131V47.124V3.81385C0.508313 3.25425 0.656186 2.7055 0.930397 2.21736C1.20515 1.72826 1.59802 1.31552 2.07329 1.01675C2.54857 0.71798 3.09114 0.542687 3.65161 0.506865C4.20968 0.471195 4.76781 0.57494 5.27561 0.808659L48.6445 22.4714Z" fill="#F2F2F2" stroke="black"/>
</svg>
