<svg width="19" height="19" viewBox="0 0 19 19" fill="none" xmlns="http://www.w3.org/2000/svg">
<path d="M7.91189 0C3.55164 0 0 3.55164 0 7.91189C0 12.2721 3.55164 15.8238 7.91189 15.8238C9.80798 15.8238 11.5493 15.1505 12.914 14.0328L17.6379 18.7567C17.7109 18.8327 17.7982 18.8933 17.8948 18.9351C17.9914 18.9768 18.0954 18.9989 18.2007 19C18.3059 19.001 18.4104 18.9811 18.5078 18.9413C18.6053 18.9015 18.6938 18.8427 18.7682 18.7682C18.8427 18.6938 18.9015 18.6053 18.9413 18.5078C18.9811 18.4104 19.001 18.3059 19 18.2007C18.9989 18.0954 18.9768 17.9914 18.9351 17.8948C18.8933 17.7982 18.8327 17.7109 18.7567 17.6379L14.0328 12.914C15.1505 11.5493 15.8238 9.80798 15.8238 7.91189C15.8238 3.55164 12.2721 0 7.91189 0ZM7.91189 1.58238C11.417 1.58238 14.2414 4.40683 14.2414 7.91189C14.2414 11.417 11.417 14.2414 7.91189 14.2414C4.40683 14.2414 1.58238 11.417 1.58238 7.91189C1.58238 4.40683 4.40683 1.58238 7.91189 1.58238Z" fill="black"/>
</svg>
