<svg width="15" height="15" viewBox="0 0 15 15" fill="none" xmlns="http://www.w3.org/2000/svg">
<path d="M8.25 7.63125L9.9375 9.31875C10.075 9.45625 10.1437 9.62825 10.1437 9.83475C10.1437 10.0407 10.075 10.2188 9.9375 10.3687C9.7875 10.5188 9.6095 10.5938 9.4035 10.5938C9.197 10.5938 9.01875 10.5188 8.86875 10.3687L7.275 8.775C7.1 8.6 6.96875 8.40625 6.88125 8.19375C6.79375 7.98125 6.75 7.75 6.75 7.5V5.25C6.75 5.0375 6.822 4.85925 6.966 4.71525C7.1095 4.57175 7.2875 4.5 7.5 4.5C7.7125 4.5 7.89075 4.57175 8.03475 4.71525C8.17825 4.85925 8.25 5.0375 8.25 5.25V7.63125ZM7.5 1.5C7.7125 1.5 7.89075 1.57175 8.03475 1.71525C8.17825 1.85925 8.25 2.0375 8.25 2.25C8.25 2.4625 8.17825 2.64075 8.03475 2.78475C7.89075 2.92825 7.7125 3 7.5 3C7.2875 3 7.1095 2.92825 6.966 2.78475C6.822 2.64075 6.75 2.4625 6.75 2.25C6.75 2.0375 6.822 1.85925 6.966 1.71525C7.1095 1.57175 7.2875 1.5 7.5 1.5ZM13.5 7.5C13.5 7.7125 13.428 7.8905 13.284 8.034C13.1405 8.178 12.9625 8.25 12.75 8.25C12.5375 8.25 12.3595 8.178 12.216 8.034C12.072 7.8905 12 7.7125 12 7.5C12 7.2875 12.072 7.10925 12.216 6.96525C12.3595 6.82175 12.5375 6.75 12.75 6.75C12.9625 6.75 13.1405 6.82175 13.284 6.96525C13.428 7.10925 13.5 7.2875 13.5 7.5ZM7.5 12C7.7125 12 7.89075 12.072 8.03475 12.216C8.17825 12.3595 8.25 12.5375 8.25 12.75C8.25 12.9625 8.17825 13.1405 8.03475 13.284C7.89075 13.428 7.7125 13.5 7.5 13.5C7.2875 13.5 7.1095 13.428 6.966 13.284C6.822 13.1405 6.75 12.9625 6.75 12.75C6.75 12.5375 6.822 12.3595 6.966 12.216C7.1095 12.072 7.2875 12 7.5 12ZM3 7.5C3 7.7125 2.92825 7.8905 2.78475 8.034C2.64075 8.178 2.4625 8.25 2.25 8.25C2.0375 8.25 1.85925 8.178 1.71525 8.034C1.57175 7.8905 1.5 7.7125 1.5 7.5C1.5 7.2875 1.57175 7.10925 1.71525 6.96525C1.85925 6.82175 2.0375 6.75 2.25 6.75C2.4625 6.75 2.64075 6.82175 2.78475 6.96525C2.92825 7.10925 3 7.2875 3 7.5ZM7.5 15C6.4625 15 5.4875 14.803 4.575 14.409C3.6625 14.0155 2.86875 13.4813 2.19375 12.8063C1.51875 12.1313 0.9845 11.3375 0.591 10.425C0.197 9.5125 0 8.5375 0 7.5C0 6.4625 0.197 5.4875 0.591 4.575C0.9845 3.6625 1.51875 2.86875 2.19375 2.19375C2.86875 1.51875 3.6625 0.98425 4.575 0.59025C5.4875 0.19675 6.4625 0 7.5 0C8.5375 0 9.5125 0.19675 10.425 0.59025C11.3375 0.98425 12.1313 1.51875 12.8063 2.19375C13.4813 2.86875 14.0155 3.6625 14.409 4.575C14.803 5.4875 15 6.4625 15 7.5C15 8.5375 14.803 9.5125 14.409 10.425C14.0155 11.3375 13.4813 12.1313 12.8063 12.8063C12.1313 13.4813 11.3375 14.0155 10.425 14.409C9.5125 14.803 8.5375 15 7.5 15ZM7.5 13.5C9.175 13.5 10.5937 12.9187 11.7562 11.7562C12.9187 10.5937 13.5 9.175 13.5 7.5C13.5 5.825 12.9187 4.40625 11.7562 3.24375C10.5937 2.08125 9.175 1.5 7.5 1.5C5.825 1.5 4.40625 2.08125 3.24375 3.24375C2.08125 4.40625 1.5 5.825 1.5 7.5C1.5 9.175 2.08125 10.5937 3.24375 11.7562C4.40625 12.9187 5.825 13.5 7.5 13.5Z" fill="white"/>
</svg>
