<svg width="30" height="30" viewBox="0 0 30 30" fill="none" xmlns="http://www.w3.org/2000/svg">
<path d="M28 6.93655C27.043 7.36155 26.015 7.64755 24.936 7.77655C26.038 7.11655 26.883 6.07155 27.281 4.82555C26.251 5.43655 25.109 5.88055 23.893 6.12055C22.92 5.08355 21.534 4.43555 20 4.43555C17.054 4.43555 14.666 6.82455 14.666 9.76955C14.666 10.1875 14.714 10.5955 14.804 10.9845C10.371 10.7625 6.44099 8.63855 3.80899 5.41055C3.35099 6.19855 3.08799 7.11455 3.08799 8.09355C3.08799 9.94355 4.02899 11.5765 5.45999 12.5325C4.58599 12.5045 3.76299 12.2645 3.04399 11.8655C3.04399 11.8885 3.04399 11.9095 3.04399 11.9325C3.04399 14.5175 4.88199 16.6735 7.32299 17.1625C6.87599 17.2845 6.40399 17.3495 5.91699 17.3495C5.57399 17.3495 5.23899 17.3155 4.91399 17.2545C5.59299 19.3735 7.56299 20.9165 9.89699 20.9595C8.07199 22.3905 5.77199 23.2435 3.27199 23.2435C2.84199 23.2435 2.41699 23.2185 1.99899 23.1685C4.35999 24.6815 7.16299 25.5645 10.176 25.5645C19.988 25.5645 25.352 17.4365 25.352 10.3875C25.352 10.1565 25.347 9.92655 25.337 9.69755C26.38 8.94455 27.285 8.00555 28 6.93655Z" fill="white"/>
</svg>
