<svg width="19" height="26" viewBox="0 0 19 26" fill="none" xmlns="http://www.w3.org/2000/svg">
<path d="M9.50032 1C7.2459 1 5.08381 1.8494 3.48969 3.36134C1.89557 4.87328 1 6.9239 1 9.06211C1 15.3716 7.4896 22.9642 9.19018 24.8294C9.28145 24.9286 9.41046 24.9895 9.54897 24.9988C9.68748 25.008 9.8242 24.9648 9.9292 24.8786L9.98111 24.8294C11.659 22.9568 18 15.3716 18 9.06149C17.9998 6.9235 17.1043 4.87313 15.5103 3.36134C13.9164 1.84955 11.7545 1.00016 9.50032 1V1ZM9.50032 11.2498C8.93017 11.2498 8.37282 11.0894 7.89875 10.789C7.42469 10.4886 7.0552 10.0616 6.83701 9.56196C6.61882 9.06236 6.56173 8.51262 6.67296 7.98225C6.78419 7.45188 7.05875 6.9647 7.46191 6.58232C7.86507 6.19995 8.37873 5.93955 8.93793 5.83405C9.49713 5.72855 10.0768 5.7827 10.6035 5.98964C11.1303 6.19658 11.5805 6.54702 11.8972 6.99664C12.214 7.44627 12.3831 7.97489 12.3831 8.51565V8.52242C12.3812 9.24639 12.0766 9.94009 11.5362 10.4514C10.9958 10.9627 10.2636 11.2498 9.50032 11.2498V11.2498Z" stroke="black" stroke-width="0.5" stroke-linecap="round" stroke-linejoin="round"/>
</svg>
